<svg width="193" height="44" viewBox="0 0 193 44" fill="none" xmlns="http://www.w3.org/2000/svg">
<path d="M0 0H183C188.523 0 193 4.47715 193 10V44H10C4.47715 44 0 39.5228 0 34V0Z" fill="#FF993A"/>
<path d="M40.984 27.192C39.928 27.192 39.0053 26.952 38.216 26.472C37.4267 25.992 36.8133 25.3253 36.376 24.472C35.9387 23.608 35.72 22.6053 35.72 21.464C35.72 20.312 35.944 19.2987 36.392 18.424C36.8507 17.5387 37.496 16.8507 38.328 16.36C39.1707 15.8587 40.168 15.608 41.32 15.608C42.632 15.608 43.72 15.9227 44.584 16.552C45.448 17.1813 46.008 18.0507 46.264 19.16H43.976C43.8053 18.6373 43.496 18.232 43.048 17.944C42.6 17.6453 42.024 17.496 41.32 17.496C40.2 17.496 39.336 17.8533 38.728 18.568C38.12 19.272 37.816 20.2427 37.816 21.48C37.816 22.7173 38.1147 23.6773 38.712 24.36C39.32 25.032 40.1413 25.368 41.176 25.368C42.1893 25.368 42.952 25.096 43.464 24.552C43.9867 23.9973 44.3013 23.272 44.408 22.376H41.576V20.84H46.472V27H44.584L44.424 25.528C44.0613 26.0613 43.608 26.472 43.064 26.76C42.52 27.048 41.8267 27.192 40.984 27.192ZM52.271 27.192C51.471 27.192 50.7617 27.0213 50.143 26.68C49.5243 26.3387 49.039 25.8587 48.687 25.24C48.335 24.6213 48.159 23.9067 48.159 23.096C48.159 22.2747 48.3297 21.544 48.671 20.904C49.023 20.264 49.503 19.768 50.111 19.416C50.7297 19.0533 51.455 18.872 52.287 18.872C53.0657 18.872 53.7537 19.0427 54.351 19.384C54.9483 19.7253 55.4123 20.1947 55.743 20.792C56.0843 21.3787 56.255 22.0347 56.255 22.76C56.255 22.8773 56.2497 23 56.239 23.128C56.239 23.256 56.2337 23.3893 56.223 23.528H50.191C50.2337 24.1467 50.447 24.632 50.831 24.984C51.2257 25.336 51.7003 25.512 52.255 25.512C52.671 25.512 53.0177 25.4213 53.295 25.24C53.583 25.048 53.7963 24.8027 53.935 24.504H56.015C55.8657 25.0053 55.615 25.464 55.263 25.88C54.9217 26.2853 54.495 26.6053 53.983 26.84C53.4817 27.0747 52.911 27.192 52.271 27.192ZM52.287 20.536C51.7857 20.536 51.343 20.68 50.959 20.968C50.575 21.2453 50.3297 21.672 50.223 22.248H54.175C54.143 21.7253 53.951 21.3093 53.599 21C53.247 20.6907 52.8097 20.536 52.287 20.536ZM57.9775 27V19.064H59.7855L59.9455 20.408C60.1908 19.9387 60.5428 19.5653 61.0015 19.288C61.4708 19.0107 62.0202 18.872 62.6495 18.872C63.6308 18.872 64.3935 19.1813 64.9375 19.8C65.4815 20.4187 65.7535 21.3253 65.7535 22.52V27H63.7055V22.712C63.7055 22.0293 63.5668 21.5067 63.2895 21.144C63.0122 20.7813 62.5802 20.6 61.9935 20.6C61.4175 20.6 60.9428 20.8027 60.5695 21.208C60.2068 21.6133 60.0255 22.1787 60.0255 22.904V27H57.9775ZM71.5679 27.192C70.7679 27.192 70.0585 27.0213 69.4399 26.68C68.8212 26.3387 68.3359 25.8587 67.9839 25.24C67.6319 24.6213 67.4559 23.9067 67.4559 23.096C67.4559 22.2747 67.6265 21.544 67.9679 20.904C68.3199 20.264 68.7999 19.768 69.4079 19.416C70.0265 19.0533 70.7519 18.872 71.5839 18.872C72.3625 18.872 73.0505 19.0427 73.6479 19.384C74.2452 19.7253 74.7092 20.1947 75.0399 20.792C75.3812 21.3787 75.5519 22.0347 75.5519 22.76C75.5519 22.8773 75.5465 23 75.5359 23.128C75.5359 23.256 75.5305 23.3893 75.5199 23.528H69.4879C69.5305 24.1467 69.7439 24.632 70.1279 24.984C70.5225 25.336 70.9972 25.512 71.5519 25.512C71.9679 25.512 72.3145 25.4213 72.5919 25.24C72.8799 25.048 73.0932 24.8027 73.2319 24.504H75.3119C75.1625 25.0053 74.9119 25.464 74.5599 25.88C74.2185 26.2853 73.7919 26.6053 73.2799 26.84C72.7785 27.0747 72.2079 27.192 71.5679 27.192ZM71.5839 20.536C71.0825 20.536 70.6399 20.68 70.2559 20.968C69.8719 21.2453 69.6265 21.672 69.5199 22.248H73.4719C73.4399 21.7253 73.2479 21.3093 72.8959 21C72.5439 20.6907 72.1065 20.536 71.5839 20.536ZM77.2744 27V19.064H79.0984L79.2904 20.552C79.5784 20.04 79.9677 19.6347 80.4584 19.336C80.9597 19.0267 81.5464 18.872 82.2184 18.872V21.032H81.6424C81.1944 21.032 80.7944 21.1013 80.4424 21.24C80.0904 21.3787 79.813 21.6187 79.6104 21.96C79.4184 22.3013 79.3224 22.776 79.3224 23.384V27H77.2744ZM86.3541 27.192C85.6715 27.192 85.1115 27.0853 84.6741 26.872C84.2368 26.648 83.9115 26.3547 83.6981 25.992C83.4848 25.6293 83.3781 25.2293 83.3781 24.792C83.3781 24.056 83.6661 23.4587 84.2421 23C84.8181 22.5413 85.6821 22.312 86.8341 22.312H88.8501V22.12C88.8501 21.576 88.6955 21.176 88.3861 20.92C88.0768 20.664 87.6928 20.536 87.2341 20.536C86.8181 20.536 86.4555 20.6373 86.1461 20.84C85.8368 21.032 85.6448 21.32 85.5701 21.704H83.5701C83.6235 21.128 83.8155 20.6267 84.1461 20.2C84.4875 19.7733 84.9248 19.448 85.4581 19.224C85.9915 18.9893 86.5888 18.872 87.2501 18.872C88.3808 18.872 89.2715 19.1547 89.9221 19.72C90.5728 20.2853 90.8981 21.0853 90.8981 22.12V27H89.1541L88.9621 25.72C88.7275 26.1467 88.3968 26.4987 87.9701 26.776C87.5541 27.0533 87.0155 27.192 86.3541 27.192ZM86.8181 25.592C87.4048 25.592 87.8581 25.4 88.1781 25.016C88.5088 24.632 88.7168 24.1573 88.8021 23.592H87.0581C86.5141 23.592 86.1248 23.6933 85.8901 23.896C85.6555 24.088 85.5381 24.328 85.5381 24.616C85.5381 24.9253 85.6555 25.1653 85.8901 25.336C86.1248 25.5067 86.4341 25.592 86.8181 25.592ZM96.2791 27C95.4471 27 94.7805 26.7973 94.2791 26.392C93.7778 25.9867 93.5271 25.2667 93.5271 24.232V20.776H92.1671V19.064H93.5271L93.7671 16.936H95.5751V19.064H97.7191V20.776H95.5751V24.248C95.5751 24.632 95.6551 24.8987 95.8151 25.048C95.9858 25.1867 96.2738 25.256 96.6791 25.256H97.6711V27H96.2791ZM103.13 27.192C102.33 27.192 101.621 27.0213 101.002 26.68C100.384 26.3387 99.8984 25.8587 99.5464 25.24C99.1944 24.6213 99.0184 23.9067 99.0184 23.096C99.0184 22.2747 99.189 21.544 99.5304 20.904C99.8824 20.264 100.362 19.768 100.97 19.416C101.589 19.0533 102.314 18.872 103.146 18.872C103.925 18.872 104.613 19.0427 105.21 19.384C105.808 19.7253 106.272 20.1947 106.602 20.792C106.944 21.3787 107.114 22.0347 107.114 22.76C107.114 22.8773 107.109 23 107.098 23.128C107.098 23.256 107.093 23.3893 107.082 23.528H101.05C101.093 24.1467 101.306 24.632 101.69 24.984C102.085 25.336 102.56 25.512 103.114 25.512C103.53 25.512 103.877 25.4213 104.154 25.24C104.442 25.048 104.656 24.8027 104.794 24.504H106.874C106.725 25.0053 106.474 25.464 106.122 25.88C105.781 26.2853 105.354 26.6053 104.842 26.84C104.341 27.0747 103.77 27.192 103.13 27.192ZM103.146 20.536C102.645 20.536 102.202 20.68 101.818 20.968C101.434 21.2453 101.189 21.672 101.082 22.248H105.034C105.002 21.7253 104.81 21.3093 104.458 21C104.106 20.6907 103.669 20.536 103.146 20.536ZM112.697 27V15.8H116.809C117.705 15.8 118.441 15.9547 119.017 16.264C119.604 16.5627 120.041 16.9733 120.329 17.496C120.617 18.008 120.761 18.5787 120.761 19.208C120.761 19.8907 120.58 20.5147 120.217 21.08C119.865 21.6453 119.311 22.056 118.553 22.312L120.873 27H118.521L116.441 22.584H114.745V27H112.697ZM114.745 21.08H116.681C117.364 21.08 117.865 20.9147 118.185 20.584C118.505 20.2533 118.665 19.816 118.665 19.272C118.665 18.7387 118.505 18.312 118.185 17.992C117.876 17.672 117.369 17.512 116.665 17.512H114.745V21.08ZM125.99 27.192C125.19 27.192 124.48 27.0213 123.862 26.68C123.243 26.3387 122.758 25.8587 122.406 25.24C122.054 24.6213 121.878 23.9067 121.878 23.096C121.878 22.2747 122.048 21.544 122.39 20.904C122.742 20.264 123.222 19.768 123.83 19.416C124.448 19.0533 125.174 18.872 126.006 18.872C126.784 18.872 127.472 19.0427 128.07 19.384C128.667 19.7253 129.131 20.1947 129.462 20.792C129.803 21.3787 129.974 22.0347 129.974 22.76C129.974 22.8773 129.968 23 129.958 23.128C129.958 23.256 129.952 23.3893 129.942 23.528H123.91C123.952 24.1467 124.166 24.632 124.55 24.984C124.944 25.336 125.419 25.512 125.974 25.512C126.39 25.512 126.736 25.4213 127.014 25.24C127.302 25.048 127.515 24.8027 127.654 24.504H129.734C129.584 25.0053 129.334 25.464 128.982 25.88C128.64 26.2853 128.214 26.6053 127.702 26.84C127.2 27.0747 126.63 27.192 125.99 27.192ZM126.006 20.536C125.504 20.536 125.062 20.68 124.678 20.968C124.294 21.2453 124.048 21.672 123.942 22.248H127.894C127.862 21.7253 127.67 21.3093 127.318 21C126.966 20.6907 126.528 20.536 126.006 20.536ZM131.696 30.52V19.064H133.52L133.744 20.2C134 19.848 134.336 19.5387 134.752 19.272C135.179 19.0053 135.728 18.872 136.4 18.872C137.147 18.872 137.814 19.0533 138.4 19.416C138.987 19.7787 139.451 20.2747 139.792 20.904C140.134 21.5333 140.304 22.248 140.304 23.048C140.304 23.848 140.134 24.5627 139.792 25.192C139.451 25.8107 138.987 26.3013 138.4 26.664C137.814 27.016 137.147 27.192 136.4 27.192C135.803 27.192 135.28 27.08 134.832 26.856C134.384 26.632 134.022 26.3173 133.744 25.912V30.52H131.696ZM135.968 25.4C136.619 25.4 137.158 25.1813 137.584 24.744C138.011 24.3067 138.224 23.7413 138.224 23.048C138.224 22.3547 138.011 21.784 137.584 21.336C137.158 20.888 136.619 20.664 135.968 20.664C135.307 20.664 134.763 20.888 134.336 21.336C133.92 21.7733 133.712 22.3387 133.712 23.032C133.712 23.7253 133.92 24.296 134.336 24.744C134.763 25.1813 135.307 25.4 135.968 25.4ZM145.942 27.192C145.174 27.192 144.48 27.016 143.862 26.664C143.254 26.312 142.768 25.8267 142.406 25.208C142.054 24.5787 141.878 23.8533 141.878 23.032C141.878 22.2107 142.059 21.4907 142.422 20.872C142.784 20.2427 143.27 19.752 143.878 19.4C144.496 19.048 145.19 18.872 145.958 18.872C146.715 18.872 147.398 19.048 148.006 19.4C148.624 19.752 149.11 20.2427 149.462 20.872C149.824 21.4907 150.006 22.2107 150.006 23.032C150.006 23.8533 149.824 24.5787 149.462 25.208C149.11 25.8267 148.624 26.312 148.006 26.664C147.387 27.016 146.699 27.192 145.942 27.192ZM145.942 25.416C146.475 25.416 146.939 25.2187 147.334 24.824C147.728 24.4187 147.926 23.8213 147.926 23.032C147.926 22.2427 147.728 21.6507 147.334 21.256C146.939 20.8507 146.48 20.648 145.958 20.648C145.414 20.648 144.944 20.8507 144.55 21.256C144.166 21.6507 143.974 22.2427 143.974 23.032C143.974 23.8213 144.166 24.4187 144.55 24.824C144.944 25.2187 145.408 25.416 145.942 25.416ZM151.837 27V19.064H153.661L153.853 20.552C154.141 20.04 154.53 19.6347 155.021 19.336C155.522 19.0267 156.109 18.872 156.781 18.872V21.032H156.205C155.757 21.032 155.357 21.1013 155.005 21.24C154.653 21.3787 154.376 21.6187 154.173 21.96C153.981 22.3013 153.885 22.776 153.885 23.384V27H151.837ZM161.717 27C160.885 27 160.218 26.7973 159.717 26.392C159.215 25.9867 158.965 25.2667 158.965 24.232V20.776H157.605V19.064H158.965L159.205 16.936H161.013V19.064H163.157V20.776H161.013V24.248C161.013 24.632 161.093 24.8987 161.253 25.048C161.423 25.1867 161.711 25.256 162.117 25.256H163.109V27H161.717Z" fill="white"/>
</svg>
