<svg width="156" height="47" viewBox="0 0 156 47" fill="none" xmlns="http://www.w3.org/2000/svg">
<path d="M7.37806 19.4326C6.40272 19.4326 5.52239 19.2426 4.73705 18.8626C3.95172 18.4699 3.32472 17.8809 2.85605 17.0956C2.40005 16.3103 2.17205 15.3159 2.17205 14.1126V5.90459H4.60405V14.1316C4.60405 15.1703 4.85105 15.9429 5.34505 16.4496C5.85172 16.9563 6.54839 17.2096 7.43506 17.2096C8.30906 17.2096 8.99939 16.9563 9.50606 16.4496C10.0127 15.9429 10.2661 15.1703 10.2661 14.1316V5.90459H12.6981V14.1126C12.6981 15.3159 12.4574 16.3103 11.9761 17.0956C11.4947 17.8809 10.8487 18.4699 10.0381 18.8626C9.24006 19.2426 8.35339 19.4326 7.37806 19.4326ZM15.1237 19.2046V9.78059H17.2707L17.4607 11.3766C17.752 10.8193 18.17 10.3759 18.7147 10.0466C19.272 9.71726 19.9243 9.55259 20.6717 9.55259C21.837 9.55259 22.7427 9.91992 23.3887 10.6546C24.0347 11.3893 24.3577 12.4659 24.3577 13.8846V19.2046H21.9257V14.1126C21.9257 13.3019 21.761 12.6813 21.4317 12.2506C21.1023 11.8199 20.5893 11.6046 19.8927 11.6046C19.2087 11.6046 18.645 11.8453 18.2017 12.3266C17.771 12.8079 17.5557 13.4793 17.5557 14.3406V19.2046H15.1237ZM27.9942 8.31759C27.5509 8.31759 27.1836 8.18459 26.8922 7.91859C26.6136 7.65259 26.4742 7.31692 26.4742 6.91159C26.4742 6.50626 26.6136 6.17692 26.8922 5.92359C27.1836 5.65759 27.5509 5.52459 27.9942 5.52459C28.4376 5.52459 28.7986 5.65759 29.0772 5.92359C29.3686 6.17692 29.5142 6.50626 29.5142 6.91159C29.5142 7.31692 29.3686 7.65259 29.0772 7.91859C28.7986 8.18459 28.4376 8.31759 27.9942 8.31759ZM26.7782 19.2046V9.78059H29.2102V19.2046H26.7782ZM32.1857 19.2046V11.8136H30.8937V9.78059H32.1857V8.67859C32.1857 7.53859 32.4707 6.72792 33.0407 6.24659C33.6233 5.76526 34.4087 5.52459 35.3967 5.52459H36.4417V7.59559H35.7767C35.3587 7.59559 35.061 7.67792 34.8837 7.84259C34.7063 8.00726 34.6177 8.28592 34.6177 8.67859V9.78059H40.6977V19.2046H38.2657V11.8136H34.6177V19.2046H32.1857ZM39.5007 8.43159C39.0573 8.43159 38.69 8.29859 38.3987 8.03259C38.12 7.76659 37.9807 7.43092 37.9807 7.02559C37.9807 6.62026 38.12 6.29092 38.3987 6.03759C38.69 5.77159 39.0573 5.63859 39.5007 5.63859C39.944 5.63859 40.305 5.77159 40.5837 6.03759C40.875 6.29092 41.0207 6.62026 41.0207 7.02559C41.0207 7.43092 40.875 7.76659 40.5837 8.03259C40.305 8.29859 39.944 8.43159 39.5007 8.43159ZM47.8501 19.4326C46.9001 19.4326 46.0578 19.2299 45.3231 18.8246C44.5885 18.4193 44.0121 17.8493 43.5941 17.1146C43.1761 16.3799 42.9671 15.5313 42.9671 14.5686C42.9671 13.5933 43.1698 12.7256 43.5751 11.9656C43.9931 11.2056 44.5631 10.6166 45.2851 10.1986C46.0198 9.76792 46.8811 9.55259 47.8691 9.55259C48.7938 9.55259 49.6108 9.75526 50.3201 10.1606C51.0295 10.5659 51.5805 11.1233 51.9731 11.8326C52.3785 12.5293 52.5811 13.3083 52.5811 14.1696C52.5811 14.3089 52.5748 14.4546 52.5621 14.6066C52.5621 14.7586 52.5558 14.9169 52.5431 15.0816H45.3801C45.4308 15.8163 45.6841 16.3926 46.1401 16.8106C46.6088 17.2286 47.1725 17.4376 47.8311 17.4376C48.3251 17.4376 48.7368 17.3299 49.0661 17.1146C49.4081 16.8866 49.6615 16.5953 49.8261 16.2406H52.2961C52.1188 16.8359 51.8211 17.3806 51.4031 17.8746C50.9978 18.3559 50.4911 18.7359 49.8831 19.0146C49.2878 19.2933 48.6101 19.4326 47.8501 19.4326ZM47.8691 11.5286C47.2738 11.5286 46.7481 11.6996 46.2921 12.0416C45.8361 12.3709 45.5448 12.8776 45.4181 13.5616H50.1111C50.0731 12.9409 49.8451 12.4469 49.4271 12.0796C49.0091 11.7123 48.4898 11.5286 47.8691 11.5286ZM58.9586 19.4326C58.0719 19.4326 57.2803 19.2173 56.5836 18.7866C55.8869 18.3559 55.3359 17.7669 54.9306 17.0196C54.5253 16.2723 54.3226 15.4236 54.3226 14.4736C54.3226 13.5236 54.5253 12.6813 54.9306 11.9466C55.3359 11.1993 55.8869 10.6166 56.5836 10.1986C57.2803 9.76792 58.0719 9.55259 58.9586 9.55259C59.6679 9.55259 60.2886 9.68559 60.8206 9.95159C61.3526 10.2176 61.7833 10.5913 62.1126 11.0726V5.52459H64.5446V19.2046H62.3786L62.1126 17.8556C61.8086 18.2736 61.4033 18.6409 60.8966 18.9576C60.4026 19.2743 59.7566 19.4326 58.9586 19.4326ZM59.4716 17.3046C60.2569 17.3046 60.8966 17.0449 61.3906 16.5256C61.8973 15.9936 62.1506 15.3159 62.1506 14.4926C62.1506 13.6693 61.8973 12.9979 61.3906 12.4786C60.8966 11.9466 60.2569 11.6806 59.4716 11.6806C58.6989 11.6806 58.0593 11.9403 57.5526 12.4596C57.0459 12.9789 56.7926 13.6503 56.7926 14.4736C56.7926 15.2969 57.0459 15.9746 57.5526 16.5066C58.0593 17.0386 58.6989 17.3046 59.4716 17.3046ZM71.6055 19.2046V5.90459H76.5265C77.5905 5.90459 78.4708 6.08192 79.1675 6.43659C79.8641 6.79126 80.3835 7.27892 80.7255 7.89959C81.0675 8.52026 81.2385 9.21692 81.2385 9.98959C81.2385 10.7243 81.0738 11.4019 80.7445 12.0226C80.4151 12.6306 79.9021 13.1246 79.2055 13.5046C78.5088 13.8719 77.6158 14.0556 76.5265 14.0556H74.0375V19.2046H71.6055ZM74.0375 12.0796H76.3745C77.2231 12.0796 77.8311 11.8959 78.1985 11.5286C78.5785 11.1486 78.7685 10.6356 78.7685 9.98959C78.7685 9.33092 78.5785 8.81792 78.1985 8.45059C77.8311 8.07059 77.2231 7.88059 76.3745 7.88059H74.0375V12.0796ZM85.7447 19.4326C84.9341 19.4326 84.2691 19.3059 83.7497 19.0526C83.2304 18.7866 82.8441 18.4383 82.5907 18.0076C82.3374 17.5769 82.2107 17.1019 82.2107 16.5826C82.2107 15.7086 82.5527 14.9993 83.2367 14.4546C83.9207 13.9099 84.9467 13.6376 86.3147 13.6376H88.7087V13.4096C88.7087 12.7636 88.5251 12.2886 88.1577 11.9846C87.7904 11.6806 87.3344 11.5286 86.7897 11.5286C86.2957 11.5286 85.8651 11.6489 85.4977 11.8896C85.1304 12.1176 84.9024 12.4596 84.8137 12.9156H82.4387C82.5021 12.2316 82.7301 11.6363 83.1227 11.1296C83.5281 10.6229 84.0474 10.2366 84.6807 9.97059C85.3141 9.69192 86.0234 9.55259 86.8087 9.55259C88.1514 9.55259 89.2091 9.88826 89.9817 10.5596C90.7544 11.2309 91.1407 12.1809 91.1407 13.4096V19.2046H89.0697L88.8417 17.6846C88.5631 18.1913 88.1704 18.6093 87.6637 18.9386C87.1697 19.2679 86.5301 19.4326 85.7447 19.4326ZM86.2957 17.5326C86.9924 17.5326 87.5307 17.3046 87.9107 16.8486C88.3034 16.3926 88.5504 15.8289 88.6517 15.1576H86.5807C85.9347 15.1576 85.4724 15.2779 85.1937 15.5186C84.9151 15.7466 84.7757 16.0316 84.7757 16.3736C84.7757 16.7409 84.9151 17.0259 85.1937 17.2286C85.4724 17.4313 85.8397 17.5326 86.2957 17.5326ZM94.3241 23.3846L96.5091 18.5776H95.9391L92.2721 9.78059H94.9131L97.5541 16.4116L100.309 9.78059H102.893L96.9081 23.3846H94.3241ZM104.483 19.2046V9.78059H106.63L106.839 11.0536C107.143 10.5976 107.542 10.2366 108.036 9.97059C108.543 9.69192 109.125 9.55259 109.784 9.55259C111.241 9.55259 112.273 10.1163 112.881 11.2436C113.223 10.7243 113.679 10.3126 114.249 10.0086C114.832 9.70459 115.465 9.55259 116.149 9.55259C117.378 9.55259 118.321 9.91992 118.98 10.6546C119.639 11.3893 119.968 12.4659 119.968 13.8846V19.2046H117.536V14.1126C117.536 13.3019 117.378 12.6813 117.061 12.2506C116.757 11.8199 116.282 11.6046 115.636 11.6046C114.977 11.6046 114.445 11.8453 114.04 12.3266C113.647 12.8079 113.451 13.4793 113.451 14.3406V19.2046H111.019V14.1126C111.019 13.3019 110.861 12.6813 110.544 12.2506C110.227 11.8199 109.74 11.6046 109.081 11.6046C108.435 11.6046 107.909 11.8453 107.504 12.3266C107.111 12.8079 106.915 13.4793 106.915 14.3406V19.2046H104.483ZM126.856 19.4326C125.906 19.4326 125.064 19.2299 124.329 18.8246C123.594 18.4193 123.018 17.8493 122.6 17.1146C122.182 16.3799 121.973 15.5313 121.973 14.5686C121.973 13.5933 122.176 12.7256 122.581 11.9656C122.999 11.2056 123.569 10.6166 124.291 10.1986C125.026 9.76792 125.887 9.55259 126.875 9.55259C127.8 9.55259 128.617 9.75526 129.326 10.1606C130.035 10.5659 130.586 11.1233 130.979 11.8326C131.384 12.5293 131.587 13.3083 131.587 14.1696C131.587 14.3089 131.581 14.4546 131.568 14.6066C131.568 14.7586 131.562 14.9169 131.549 15.0816H124.386C124.437 15.8163 124.69 16.3926 125.146 16.8106C125.615 17.2286 126.178 17.4376 126.837 17.4376C127.331 17.4376 127.743 17.3299 128.072 17.1146C128.414 16.8866 128.667 16.5953 128.832 16.2406H131.302C131.125 16.8359 130.827 17.3806 130.409 17.8746C130.004 18.3559 129.497 18.7359 128.889 19.0146C128.294 19.2933 127.616 19.4326 126.856 19.4326ZM126.875 11.5286C126.28 11.5286 125.754 11.6996 125.298 12.0416C124.842 12.3709 124.551 12.8776 124.424 13.5616H129.117C129.079 12.9409 128.851 12.4469 128.433 12.0796C128.015 11.7123 127.496 11.5286 126.875 11.5286ZM133.632 19.2046V9.78059H135.779L135.969 11.3766C136.261 10.8193 136.679 10.3759 137.223 10.0466C137.781 9.71726 138.433 9.55259 139.18 9.55259C140.346 9.55259 141.251 9.91992 141.897 10.6546C142.543 11.3893 142.866 12.4659 142.866 13.8846V19.2046H140.434V14.1126C140.434 13.3019 140.27 12.6813 139.94 12.2506C139.611 11.8199 139.098 11.6046 138.401 11.6046C137.717 11.6046 137.154 11.8453 136.71 12.3266C136.28 12.8079 136.064 13.4793 136.064 14.3406V19.2046H133.632ZM149.391 19.2046C148.403 19.2046 147.611 18.9639 147.016 18.4826C146.421 18.0013 146.123 17.1463 146.123 15.9176V11.8136H144.508V9.78059H146.123L146.408 7.25359H148.555V9.78059H151.101V11.8136H148.555V15.9366C148.555 16.3926 148.65 16.7093 148.84 16.8866C149.043 17.0513 149.385 17.1336 149.866 17.1336H151.044V19.2046H149.391Z" fill="#52C3F1"/>
<path d="M6.328 43.192C5.528 43.192 4.80267 43.0373 4.152 42.728C3.512 42.408 3 41.9227 2.616 41.272C2.24267 40.6213 2.056 39.7947 2.056 38.792V31.8H3.752V38.808C3.752 39.7893 3.98667 40.5093 4.456 40.968C4.92533 41.4267 5.56 41.656 6.36 41.656C7.14933 41.656 7.77867 41.4267 8.248 40.968C8.71733 40.5093 8.952 39.7893 8.952 38.808V31.8H10.648V38.792C10.648 39.7947 10.4507 40.6213 10.056 41.272C9.672 41.9227 9.14933 42.408 8.488 42.728C7.83733 43.0373 7.11733 43.192 6.328 43.192ZM12.8235 43V31.8H16.7435C17.6182 31.8 18.3435 31.9493 18.9195 32.248C19.4955 32.536 19.9222 32.936 20.1995 33.448C20.4875 33.9493 20.6315 34.52 20.6315 35.16C20.6315 35.768 20.4928 36.328 20.2155 36.84C19.9488 37.3413 19.5275 37.7413 18.9515 38.04C18.3755 38.3387 17.6395 38.488 16.7435 38.488H14.5195V43H12.8235ZM14.5195 37.096H16.6635C17.4635 37.096 18.0342 36.9253 18.3755 36.584C18.7275 36.232 18.9035 35.7573 18.9035 35.16C18.9035 34.5413 18.7275 34.0613 18.3755 33.72C18.0342 33.368 17.4635 33.192 16.6635 33.192H14.5195V37.096ZM26.3391 43V31.8H30.5631C31.7258 31.8 32.6058 32.072 33.2031 32.616C33.8005 33.16 34.0991 33.8427 34.0991 34.664C34.0991 35.3787 33.9071 35.9493 33.5231 36.376C33.1391 36.792 32.6751 37.0747 32.1311 37.224C32.5578 37.3093 32.9365 37.48 33.2671 37.736C33.6085 37.992 33.8751 38.312 34.0671 38.696C34.2591 39.08 34.3551 39.496 34.3551 39.944C34.3551 40.52 34.2111 41.0427 33.9231 41.512C33.6458 41.9707 33.2351 42.3333 32.6911 42.6C32.1471 42.8667 31.4805 43 30.6911 43H26.3391ZM28.0351 36.6H30.3551C31.0058 36.6 31.5018 36.4507 31.8431 36.152C32.1845 35.8427 32.3551 35.4213 32.3551 34.888C32.3551 34.3653 32.1845 33.9493 31.8431 33.64C31.5125 33.3307 31.0058 33.176 30.3231 33.176H28.0351V36.6ZM28.0351 41.608H30.4671C31.1498 41.608 31.6778 41.448 32.0511 41.128C32.4351 40.808 32.6271 40.36 32.6271 39.784C32.6271 39.208 32.4298 38.7547 32.0351 38.424C31.6405 38.0827 31.1071 37.912 30.4351 37.912H28.0351V41.608ZM37.1101 33.56C36.7901 33.56 36.5235 33.464 36.3101 33.272C36.1075 33.0693 36.0061 32.8187 36.0061 32.52C36.0061 32.2213 36.1075 31.976 36.3101 31.784C36.5235 31.5813 36.7901 31.48 37.1101 31.48C37.4301 31.48 37.6915 31.5813 37.8941 31.784C38.1075 31.976 38.2141 32.2213 38.2141 32.52C38.2141 32.8187 38.1075 33.0693 37.8941 33.272C37.6915 33.464 37.4301 33.56 37.1101 33.56ZM36.2621 43V35.064H37.9581V43H36.2621ZM40.197 43V31.48H41.893V43H40.197ZM44.0408 43V31.48H45.7368V43H44.0408ZM48.8445 33.56C48.5245 33.56 48.2578 33.464 48.0445 33.272C47.8418 33.0693 47.7405 32.8187 47.7405 32.52C47.7405 32.2213 47.8418 31.976 48.0445 31.784C48.2578 31.5813 48.5245 31.48 48.8445 31.48C49.1645 31.48 49.4258 31.5813 49.6285 31.784C49.8418 31.976 49.9485 32.2213 49.9485 32.52C49.9485 32.8187 49.8418 33.0693 49.6285 33.272C49.4258 33.464 49.1645 33.56 48.8445 33.56ZM47.9965 43V35.064H49.6925V43H47.9965ZM51.9314 43V35.064H53.4354L53.5634 36.456C53.8087 35.9653 54.166 35.5813 54.6354 35.304C55.1154 35.016 55.6647 34.872 56.2834 34.872C57.2434 34.872 57.9954 35.1707 58.5394 35.768C59.094 36.3653 59.3714 37.256 59.3714 38.44V43H57.6914V38.616C57.6914 37.08 57.062 36.312 55.8034 36.312C55.174 36.312 54.6514 36.536 54.2354 36.984C53.83 37.432 53.6274 38.072 53.6274 38.904V43H51.9314ZM64.6169 40.568C64.2009 40.568 63.8169 40.52 63.4649 40.424L62.7769 41.096C62.8942 41.1707 63.0382 41.2347 63.2089 41.288C63.3795 41.3413 63.6195 41.3893 63.9289 41.432C64.2382 41.4747 64.6595 41.5173 65.1929 41.56C66.2489 41.656 67.0115 41.912 67.4809 42.328C67.9502 42.7333 68.1849 43.2773 68.1849 43.96C68.1849 44.4293 68.0569 44.872 67.8009 45.288C67.5555 45.7147 67.1662 46.056 66.6329 46.312C66.1102 46.5787 65.4382 46.712 64.6169 46.712C63.5075 46.712 62.6062 46.4987 61.9129 46.072C61.2302 45.656 60.8889 45.0213 60.8889 44.168C60.8889 43.8373 60.9742 43.5067 61.1449 43.176C61.3262 42.856 61.6089 42.552 61.9929 42.264C61.7689 42.168 61.5715 42.0667 61.4009 41.96C61.2409 41.8427 61.0969 41.7253 60.9689 41.608V41.224L62.3449 39.816C61.7262 39.2827 61.4169 38.584 61.4169 37.72C61.4169 37.1973 61.5395 36.7227 61.7849 36.296C62.0409 35.8587 62.4089 35.512 62.8889 35.256C63.3689 35 63.9449 34.872 64.6169 34.872C65.0649 34.872 65.4809 34.936 65.8649 35.064H68.8249V36.184L67.4169 36.264C67.6729 36.7013 67.8009 37.1867 67.8009 37.72C67.8009 38.2533 67.6729 38.7333 67.4169 39.16C67.1715 39.5867 66.8089 39.928 66.3289 40.184C65.8595 40.44 65.2889 40.568 64.6169 40.568ZM64.6169 39.24C65.1075 39.24 65.5022 39.112 65.8009 38.856C66.1102 38.5893 66.2649 38.216 66.2649 37.736C66.2649 37.2453 66.1102 36.872 65.8009 36.616C65.5022 36.36 65.1075 36.232 64.6169 36.232C64.1155 36.232 63.7102 36.36 63.4009 36.616C63.1022 36.872 62.9529 37.2453 62.9529 37.736C62.9529 38.216 63.1022 38.5893 63.4009 38.856C63.7102 39.112 64.1155 39.24 64.6169 39.24ZM62.4889 44.008C62.4889 44.4667 62.6915 44.808 63.0969 45.032C63.5022 45.2667 64.0089 45.384 64.6169 45.384C65.2035 45.384 65.6782 45.256 66.0409 45C66.4035 44.7547 66.5849 44.424 66.5849 44.008C66.5849 43.6987 66.4622 43.432 66.2169 43.208C65.9715 42.9947 65.5075 42.8613 64.8249 42.808C64.3129 42.776 63.8595 42.728 63.4649 42.664C63.0915 42.8667 62.8355 43.0853 62.6969 43.32C62.5582 43.5547 62.4889 43.784 62.4889 44.008ZM78.1289 43.192C77.3075 43.192 76.5875 43.048 75.9689 42.76C75.3502 42.472 74.8649 42.0613 74.5129 41.528C74.1715 40.9947 73.9955 40.36 73.9849 39.624H75.7769C75.7875 40.2213 75.9955 40.728 76.4009 41.144C76.8062 41.56 77.3769 41.768 78.1129 41.768C78.7635 41.768 79.2702 41.6133 79.6329 41.304C80.0062 40.984 80.1929 40.5787 80.1929 40.088C80.1929 39.6933 80.1022 39.3733 79.9209 39.128C79.7502 38.8827 79.5102 38.68 79.2009 38.52C78.9022 38.36 78.5555 38.216 78.1609 38.088C77.7662 37.96 77.3502 37.8213 76.9129 37.672C76.0489 37.384 75.3982 37.0107 74.9609 36.552C74.5342 36.0933 74.3209 35.4907 74.3209 34.744C74.3102 34.1147 74.4542 33.5653 74.7529 33.096C75.0622 32.6267 75.4889 32.264 76.0329 32.008C76.5875 31.7413 77.2329 31.608 77.9689 31.608C78.6942 31.608 79.3289 31.7413 79.8729 32.008C80.4275 32.2747 80.8595 32.648 81.1689 33.128C81.4782 33.5973 81.6382 34.1467 81.6489 34.776H79.8569C79.8569 34.488 79.7822 34.216 79.6329 33.96C79.4835 33.6933 79.2649 33.4747 78.9769 33.304C78.6889 33.1333 78.3369 33.048 77.9209 33.048C77.3875 33.0373 76.9449 33.1707 76.5929 33.448C76.2515 33.7253 76.0809 34.1093 76.0809 34.6C76.0809 35.0373 76.2089 35.3733 76.4649 35.608C76.7209 35.8427 77.0729 36.04 77.5209 36.2C77.9689 36.3493 78.4809 36.5253 79.0569 36.728C79.6115 36.9093 80.1075 37.128 80.5449 37.384C80.9822 37.64 81.3289 37.976 81.5849 38.392C81.8515 38.808 81.9849 39.336 81.9849 39.976C81.9849 40.5413 81.8409 41.0693 81.5529 41.56C81.2649 42.04 80.8329 42.4347 80.2569 42.744C79.6809 43.0427 78.9715 43.192 78.1289 43.192ZM84.7031 46.52L86.6071 42.344H86.1431L83.0071 35.064H84.8471L87.2791 40.936L89.8231 35.064H91.6151L86.4951 46.52H84.7031ZM95.7556 43.192C94.753 43.192 93.9263 42.9467 93.2756 42.456C92.625 41.9653 92.2516 41.3147 92.1556 40.504H93.8676C93.953 40.8667 94.1556 41.1813 94.4756 41.448C94.7956 41.704 95.217 41.832 95.7396 41.832C96.2516 41.832 96.625 41.7253 96.8596 41.512C97.0943 41.2987 97.2116 41.0533 97.2116 40.776C97.2116 40.3707 97.0463 40.0987 96.7156 39.96C96.3956 39.8107 95.9476 39.6773 95.3716 39.56C94.9236 39.464 94.4756 39.336 94.0276 39.176C93.5903 39.016 93.2223 38.792 92.9236 38.504C92.6356 38.2053 92.4916 37.8053 92.4916 37.304C92.4916 36.6107 92.7583 36.0347 93.2916 35.576C93.825 35.1067 94.5716 34.872 95.5316 34.872C96.417 34.872 97.1316 35.0853 97.6756 35.512C98.2303 35.9387 98.5556 36.5413 98.6516 37.32H97.0196C96.9663 36.9787 96.8063 36.712 96.5396 36.52C96.2836 36.328 95.937 36.232 95.4996 36.232C95.073 36.232 94.7423 36.3227 94.5076 36.504C94.273 36.6747 94.1556 36.8987 94.1556 37.176C94.1556 37.4533 94.3156 37.672 94.6356 37.832C94.9663 37.992 95.3983 38.136 95.9316 38.264C96.465 38.3813 96.9556 38.52 97.4036 38.68C97.8623 38.8293 98.2303 39.0533 98.5076 39.352C98.785 39.6507 98.9236 40.088 98.9236 40.664C98.9343 41.3893 98.6516 41.992 98.0756 42.472C97.5103 42.952 96.737 43.192 95.7556 43.192ZM103.806 43C103.028 43 102.409 42.8133 101.95 42.44C101.492 42.056 101.262 41.3787 101.262 40.408V36.488H99.9023V35.064H101.262L101.47 33.048H102.958V35.064H105.198V36.488H102.958V40.408C102.958 40.8453 103.049 41.1493 103.23 41.32C103.422 41.48 103.748 41.56 104.206 41.56H105.118V43H103.806ZM110.456 43.192C109.677 43.192 108.984 43.0213 108.376 42.68C107.779 42.328 107.309 41.8427 106.968 41.224C106.627 40.6053 106.456 39.8853 106.456 39.064C106.456 38.232 106.621 37.5013 106.952 36.872C107.293 36.2427 107.763 35.752 108.36 35.4C108.968 35.048 109.672 34.872 110.472 34.872C111.251 34.872 111.928 35.048 112.504 35.4C113.08 35.7413 113.528 36.2 113.848 36.776C114.168 37.352 114.328 37.9867 114.328 38.68C114.328 38.7867 114.323 38.904 114.312 39.032C114.312 39.1493 114.307 39.2827 114.296 39.432H108.12C108.173 40.2 108.424 40.7867 108.872 41.192C109.331 41.5867 109.859 41.784 110.456 41.784C110.936 41.784 111.336 41.6773 111.656 41.464C111.987 41.24 112.232 40.9413 112.392 40.568H114.088C113.875 41.3147 113.448 41.9387 112.808 42.44C112.179 42.9413 111.395 43.192 110.456 43.192ZM110.456 36.264C109.891 36.264 109.389 36.4347 108.952 36.776C108.515 37.1067 108.248 37.608 108.152 38.28H112.632C112.6 37.6613 112.381 37.1707 111.976 36.808C111.571 36.4453 111.064 36.264 110.456 36.264ZM116.088 43V35.064H117.592L117.736 36.184C117.992 35.7787 118.328 35.4587 118.744 35.224C119.17 34.9893 119.661 34.872 120.216 34.872C121.474 34.872 122.349 35.368 122.84 36.36C123.128 35.9013 123.512 35.5387 123.992 35.272C124.482 35.0053 125.01 34.872 125.576 34.872C126.568 34.872 127.346 35.1707 127.912 35.768C128.477 36.3653 128.76 37.256 128.76 38.44V43H127.064V38.616C127.064 37.08 126.477 36.312 125.304 36.312C124.706 36.312 124.216 36.536 123.832 36.984C123.458 37.432 123.272 38.072 123.272 38.904V43H121.576V38.616C121.576 37.08 120.984 36.312 119.8 36.312C119.213 36.312 118.728 36.536 118.344 36.984C117.97 37.432 117.784 38.072 117.784 38.904V43H116.088Z" fill="#969494"/>
</svg>
